<svg width="23" height="23" viewBox="0 0 23 23" fill="none" xmlns="http://www.w3.org/2000/svg">
<path d="M20.5625 7.64122C20.4028 7.57842 20.2327 7.54641 20.0611 7.54688H20.0432C19.1371 7.56036 18.121 8.40893 17.5877 9.69235C16.9485 11.2278 17.2427 12.7987 18.2499 13.2025C18.4094 13.2653 18.5794 13.2974 18.7508 13.2969C19.6613 13.2969 20.6914 12.4434 21.2291 11.1514C21.8639 9.61598 21.5651 8.04506 20.5625 7.64122V7.64122Z" stroke="#484848" stroke-width="1.875" stroke-miterlimit="10"/>
<path d="M14.7157 13.6329C13.4669 11.5606 12.9278 10.7812 11.4993 10.7812C10.0708 10.7812 9.52723 11.5656 8.27841 13.6329C7.20927 15.401 5.04852 15.5484 4.50946 17.0501C4.4001 17.3252 4.34518 17.6188 4.34774 17.9148C4.34774 19.1363 5.28212 20.125 6.43212 20.125C7.86063 20.125 9.80575 18.9844 11.5038 18.9844C13.2018 18.9844 15.138 20.125 16.5665 20.125C17.7165 20.125 18.6464 19.1367 18.6464 17.9148C18.6474 17.6186 18.591 17.3249 18.4802 17.0501C17.9411 15.543 15.7849 15.401 14.7157 13.6329Z" stroke="#484848" stroke-width="1.875" stroke-miterlimit="10"/>
<path d="M8.64723 8.80469C8.70738 8.80474 8.76744 8.80023 8.82691 8.79121C9.86955 8.63982 10.5205 7.19514 10.2842 5.56357C10.0618 4.02545 9.12834 2.875 8.15219 2.875C8.09204 2.87495 8.03197 2.87946 7.9725 2.88848C6.92986 3.03986 6.27895 4.48455 6.51524 6.11611C6.7376 7.64975 7.67107 8.80469 8.64723 8.80469Z" stroke="#484848" stroke-width="1.875" stroke-miterlimit="10"/>
<path d="M16.4821 6.11611C16.7183 4.48455 16.0674 3.03986 15.0248 2.88848C14.9653 2.87946 14.9052 2.87495 14.8451 2.875C13.8689 2.875 12.9373 4.02545 12.7145 5.56357C12.4782 7.19514 13.1291 8.63982 14.1717 8.79121C14.2312 8.80023 14.2913 8.80474 14.3514 8.80469C15.3276 8.80469 16.261 7.64975 16.4821 6.11611V6.11611Z" stroke="#484848" stroke-width="1.875" stroke-miterlimit="10"/>
<path d="M4.7513 13.2025C5.75711 12.7982 6.05089 11.226 5.41255 9.69235C4.87529 8.4004 3.84613 7.54688 2.93691 7.54688C2.76549 7.54641 2.59553 7.57842 2.43603 7.64122C1.43023 8.04551 1.13644 9.61778 1.77478 11.1514C2.31205 12.4434 3.34121 13.2969 4.25043 13.2969C4.42185 13.2973 4.5918 13.2653 4.7513 13.2025V13.2025Z" stroke="#484848" stroke-width="1.875" stroke-miterlimit="10"/>
</svg>
